<?xml version="1.0" encoding="utf-8"?>
<!-- Generator: Adobe Illustrator 24.0.1, SVG Export Plug-In . SVG Version: 6.00 Build 0)  -->
<svg version="1.1" id="Layer_1" xmlns="http://www.w3.org/2000/svg" xmlns:xlink="http://www.w3.org/1999/xlink" x="0px" y="0px"
	 viewBox="0 0 2500 605" style="enable-background:new 0 0 2500 605;" xml:space="preserve">
<path d="M417,251.5c-17.3-29.8-27-64.3-27-101v-139c-22-6.3-45-10-68.8-11.3v150.3c0,49.3,13.3,95.5,36.3,135.5s56.5,74.5,99.3,99.3
	l99.8,57.5C567,422.3,575,400,580,377l-89-51.5C459.3,307,434.3,281.3,417,251.5L417,251.5z"/>
<path d="M619.3,280.3L542.8,236c-15.5-9-27.8-21.5-36.3-36.3c-8.5-14.5-13.3-31.5-13.3-49.5V106c-20.5-18.3-43.5-33.8-68.8-45.5v90
	c0,30.5,8.3,59.3,22.5,83.8c14.3,24.8,35,46,61.3,61.3l110,63.5c2-14.3,3-28.8,3-43.5C621.2,303.5,620.5,291.8,619.3,280.3
	L619.3,280.3z M164.3,234.3c-14.3,24.8-35,46-61.5,61.3l-77.5,44.8c-0.8-8.3-1.3-16.5-1.3-24.8c0-19.8,2-38.8,5.8-57.3L68.3,236
	c15.5-9,27.8-21.5,36.3-36.3c8.3-14.5,13.3-31.5,13.3-49.5V61.8C138.8,46,162,33,186.5,23v127.3C186.8,181,178.5,209.5,164.3,234.3z
	"/>
<path d="M253.8,285.8c23-40,36.3-86.3,36.3-135.5V34.8c-23.8,1.3-47,5.5-68.8,12.5v103.3c0,36.7-10,71.3-27,101
	c-17.3,29.8-42.3,55.5-74,74L0,394.8c6,22.8,14.5,44.5,25,65L154.5,385C197.3,360.5,230.8,325.8,253.8,285.8L253.8,285.8z
	 M305.5,478.5c28.5,0,57.5,7.2,83.8,22.5l77.8,44.7c-22.2,15.8-47,28.3-73.5,37L355,560.5c-15.5-9-32.5-13.3-49.5-13.3
	c-16.8,0-33.8,4.2-49.5,13.3l-76.8,44.3c-24.3-10.8-47-24.3-67.8-40.3l110-63.5C248.3,485.7,277,478.5,305.5,478.5L305.5,478.5z"/>
<path d="M441,411.5c-42.8-24.8-89.3-36.3-135.5-36.3c-46,0-92.8,11.5-135.5,36.3L70,469.3c12.8,19.5,28,37.5,45.3,53.3l89.3-51.5
	c31.8-18.5,66.8-27,101-27c34.5,0,69.3,8.8,101,27l120.3,69.5c16.5-16.3,31.3-34.5,44-54L441,411.5L441,411.5z M1727.3,334
	c6.3,2.3,12,4.5,15.5,6c15.5,5.8,27.3,12.8,35.5,20.8c13.5,13.5,20.5,30.5,20.5,50.3c0,24.3-11,47-30.5,62c-17.7,14-41,21.3-69,21.3
	c-44.3,0-78.5-17.2-98.5-30.8l29.3-50c25.8,18,52.5,24.3,71,24.3c16.8,0,32-5.5,32-21c0-12.5-12.5-18.3-25.5-22.8l-0.5-0.3
	c-2-0.8-4-1.5-6.5-2.3l-0.8-0.3l-3-1l-2.3-0.8c-9.5-3.5-19.8-7-25.5-9.5c-1-0.5-2-1-3-1.3c-6.8-3-17.7-8-27.5-17.3
	c-13.8-12.8-20.5-29.3-20.5-50.3c0-30,17-48.5,27.3-57c15.7-13.3,39.5-20.5,67.5-20.5c28.8,0,58.5,7.5,83.2,24.5l-28.2,47.8
	c-18.8-14-39.8-18.3-56.5-18.3c-8.2,0-27.7,1.7-27.7,17.7c0,11.5,10,16.3,22.3,21c5.5,2.3,12.5,4.8,19.5,7.5H1727.3L1727.3,334z
	 M1826.8,290h63.3v200h66V290h63.3v-54h-192.7C1826.8,236,1826.8,290,1826.8,290z M2212.3,386.5h-96V435h105v55h-170.8V236H2218
	v54.5h-101.8v41.8h96V386.5z M2458.8,266.5c-16.3-13.8-46.3-30.5-97.5-30.5h-87.5v254h87.5c50.8,0,81-16.5,97.3-30.3
	c27.5-23.3,41.3-55.8,41.3-96.8C2500,321.7,2486,289.2,2458.8,266.5L2458.8,266.5z M2412.8,418c-11,10.8-28.3,16.5-48.3,16.5h-25
	V290.3h25c26.8,0,41.8,10.3,48.3,16.3c13.5,13,20.5,33.5,20.5,56.5S2426.5,405,2412.8,418z M983.8,305.5c0,22.3-11.3,40-31,50.8
	c27.5,10.3,43.8,31.7,43.8,59.2c0,25.3-9.3,43.5-28.8,57.8c-15.3,11.3-37.3,16.8-65.5,16.8H797.8V236h98.5c26,0,46.5,5.3,60.8,15.5
	C975.2,265,983.8,282,983.8,305.5L983.8,305.5z M863.5,434.5H891c26,0,38.8-9.5,38.8-25.5c0-15-13.8-25.5-38.8-25.5h-27.5V434.5z
	 M887.3,290.3H863V335h24.3c26,0,34.3-9,34.3-22.5C921.5,298.8,911.3,290.3,887.3,290.3L887.3,290.3z M1159.5,230.8
	c-73,0-132,59.3-132,132c0,73,59.3,132,132,132c72.7,0,132-59.3,132-132.3C1291.7,290,1232.5,230.8,1159.5,230.8L1159.5,230.8z
	 M1159.5,435c-39.8,0-72-32.3-72-72s32.3-72,72-72s72,32.3,72,72C1231.8,402.8,1199.5,435,1159.5,435z M1323,362.8
	c0-73,59.3-132,132-132c73,0,132,59.3,132,132c0,73-59.3,132-132,132C1382.3,495,1323,435.8,1323,362.8z M1383,362.8
	c0,39.8,32.3,72,72,72s72-32.3,72-72s-32.3-72-72-72S1383,323,1383,362.8z"/>
</svg>
