<?xml version="1.0" encoding="utf-8"?>
<!-- Generator: Adobe Illustrator 24.0.1, SVG Export Plug-In . SVG Version: 6.00 Build 0)  -->
<svg version="1.1" id="Layer_1" xmlns="http://www.w3.org/2000/svg" xmlns:xlink="http://www.w3.org/1999/xlink" x="0px" y="0px"
	 viewBox="0 0 621.2 605" style="enable-background:new 0 0 621.2 605;" xml:space="preserve">
<path d="M417,251.5c-17.3-29.8-27-64.3-27-101v-139c-22-6.3-45-10-68.8-11.3v150.3c0,49.3,13.3,95.5,36.3,135.5s56.5,74.5,99.3,99.3
	l99.8,57.5C567,422.3,575,400,580,377l-89-51.5C459.3,307,434.3,281.3,417,251.5L417,251.5z"/>
<path d="M619.3,280.3L542.8,236c-15.5-9-27.8-21.5-36.3-36.3c-8.5-14.5-13.3-31.5-13.3-49.5V106c-20.5-18.3-43.5-33.8-68.8-45.5v90
	c0,30.5,8.3,59.3,22.5,83.8c14.3,24.8,35,46,61.3,61.3l110,63.5c2-14.3,3-28.8,3-43.5C621.2,303.5,620.5,291.8,619.3,280.3
	L619.3,280.3z M164.3,234.3c-14.3,24.8-35,46-61.5,61.3l-77.5,44.8c-0.8-8.3-1.3-16.5-1.3-24.8c0-19.8,2-38.8,5.8-57.3L68.3,236
	c15.5-9,27.8-21.5,36.3-36.3c8.3-14.5,13.3-31.5,13.3-49.5V61.8C138.8,46,162,33,186.5,23v127.3C186.8,181,178.5,209.5,164.3,234.3z
	"/>
<path d="M253.8,285.8c23-40,36.3-86.3,36.3-135.5V34.8c-23.8,1.3-47,5.5-68.8,12.5v103.3c0,36.7-10,71.3-27,101
	c-17.3,29.8-42.3,55.5-74,74L0,394.8c6,22.8,14.5,44.5,25,65L154.5,385C197.3,360.5,230.8,325.8,253.8,285.8L253.8,285.8z
	 M305.5,478.5c28.5,0,57.5,7.2,83.8,22.5l77.8,44.7c-22.2,15.8-47,28.3-73.5,37L355,560.5c-15.5-9-32.5-13.3-49.5-13.3
	c-16.8,0-33.8,4.2-49.5,13.3l-76.8,44.3c-24.3-10.8-47-24.3-67.8-40.3l110-63.5C248.3,485.7,277,478.5,305.5,478.5L305.5,478.5z"/>
<path d="M441,411.5c-42.8-24.8-89.3-36.3-135.5-36.3c-46,0-92.8,11.5-135.5,36.3L70,469.3c12.8,19.5,28,37.5,45.3,53.3l89.3-51.5
	c31.8-18.5,66.8-27,101-27c34.5,0,69.3,8.8,101,27l120.3,69.5c16.5-16.3,31.3-34.5,44-54L441,411.5L441,411.5z"/>
</svg>
