<svg width="140" height="30" viewBox="0 0 140 30" fill="none" xmlns="http://www.w3.org/2000/svg">
<path d="M125.58 15.5953H127.159V19.8173C127.159 20.3052 127.043 20.7303 126.81 21.0925C126.578 21.4526 126.254 21.7317 125.839 21.9299C125.423 22.1259 124.941 22.2239 124.391 22.2239C123.835 22.2239 123.349 22.1259 122.934 21.9299C122.518 21.7317 122.195 21.4526 121.965 21.0925C121.735 20.7303 121.62 20.3052 121.62 19.8173V15.5953H123.202V19.6799C123.202 19.9057 123.251 20.1071 123.349 20.2839C123.449 20.4608 123.589 20.5992 123.768 20.6994C123.947 20.7995 124.155 20.8496 124.391 20.8496C124.628 20.8496 124.834 20.7995 125.011 20.6994C125.19 20.5992 125.33 20.4608 125.43 20.2839C125.53 20.1071 125.58 19.9057 125.58 19.6799V15.5953ZM131.598 17.5577C131.577 17.3233 131.482 17.1411 131.314 17.0112C131.148 16.8791 130.91 16.813 130.601 16.813C130.397 16.813 130.226 16.8397 130.09 16.8929C129.953 16.9462 129.851 17.0197 129.783 17.1134C129.715 17.2051 129.68 17.3105 129.678 17.4299C129.673 17.5279 129.692 17.6142 129.735 17.6887C129.78 17.7633 129.844 17.8294 129.927 17.8869C130.012 17.9423 130.114 17.9913 130.234 18.0339C130.353 18.0765 130.487 18.1138 130.636 18.1458L131.199 18.2736C131.523 18.3439 131.808 18.4377 132.055 18.5549C132.305 18.672 132.514 18.8116 132.682 18.9735C132.852 19.1355 132.981 19.3219 133.069 19.5328C133.156 19.7438 133.201 19.9803 133.203 20.2424C133.201 20.6557 133.096 21.0105 132.89 21.3066C132.683 21.6028 132.386 21.8297 131.998 21.9874C131.612 22.1451 131.147 22.2239 130.601 22.2239C130.054 22.2239 129.576 22.1419 129.169 21.9778C128.762 21.8137 128.446 21.5644 128.22 21.2299C127.994 20.8954 127.878 20.4725 127.872 19.9611H129.387C129.4 20.172 129.456 20.3478 129.556 20.4884C129.656 20.6291 129.794 20.7356 129.968 20.8081C130.145 20.8805 130.35 20.9167 130.582 20.9167C130.795 20.9167 130.976 20.888 131.125 20.8304C131.277 20.7729 131.393 20.693 131.474 20.5907C131.555 20.4884 131.596 20.3713 131.598 20.2392C131.596 20.1156 131.558 20.0101 131.483 19.9228C131.409 19.8333 131.294 19.7566 131.138 19.6926C130.985 19.6266 130.789 19.5659 130.55 19.5105L129.866 19.3507C129.299 19.2207 128.853 19.0108 128.527 18.721C128.201 18.4291 128.039 18.035 128.041 17.5385C128.039 17.1337 128.148 16.7789 128.367 16.4742C128.587 16.1696 128.89 15.932 129.278 15.7615C129.666 15.5911 130.108 15.5058 130.604 15.5058C131.112 15.5058 131.552 15.5921 131.924 15.7647C132.299 15.9352 132.59 16.1749 132.797 16.4838C133.004 16.7928 133.109 17.1507 133.113 17.5577H131.598ZM135.125 22.1408H133.425L135.634 15.5953H137.74L139.948 22.1408H138.248L136.711 17.2445H136.66L135.125 22.1408ZM134.899 19.5648H138.453V20.7665H134.899V19.5648Z" fill="black"/>
<path d="M37.2731 22.0542V9.69052H42.4287C43.3543 9.69052 44.1291 9.82132 44.7529 10.0829C45.3807 10.3445 45.8516 10.7108 46.1655 11.1816C46.4835 11.6525 46.6425 12.1979 46.6425 12.8176C46.6425 13.2885 46.5439 13.7091 46.3467 14.0794C46.1494 14.4456 45.8778 14.7495 45.5317 14.9909C45.1855 15.2324 44.7851 15.4015 44.3303 15.498V15.6188C44.8294 15.6429 45.2902 15.7778 45.7128 16.0233C46.1394 16.2688 46.4815 16.6109 46.7391 17.0495C46.9966 17.4842 47.1254 17.9993 47.1254 18.595C47.1254 19.2591 46.9564 19.8527 46.6183 20.3759C46.2802 20.8951 45.7913 21.3056 45.1513 21.6074C44.5114 21.9052 43.7347 22.0542 42.8211 22.0542H37.2731ZM40.2614 19.6454H42.1087C42.7567 19.6454 43.2336 19.5227 43.5395 19.2772C43.8494 19.0317 44.0043 18.6896 44.0043 18.2509C44.0043 17.9329 43.9299 17.6593 43.781 17.4299C43.632 17.1964 43.4208 17.0173 43.1471 16.8926C42.8734 16.7638 42.5454 16.6994 42.1631 16.6994H40.2614V19.6454ZM40.2614 14.7736H41.9155C42.2415 14.7736 42.5313 14.7193 42.7849 14.6106C43.0384 14.502 43.2356 14.345 43.3765 14.1397C43.5214 13.9345 43.5938 13.687 43.5938 13.3972C43.5938 12.9827 43.4469 12.6567 43.1531 12.4192C42.8593 12.1818 42.4629 12.063 41.9638 12.063H40.2614V14.7736ZM59.7216 15.8723C59.7216 17.2327 59.46 18.3857 58.9368 19.3315C58.4136 20.2773 57.7053 20.9957 56.8118 21.4867C55.9224 21.9777 54.9242 22.2232 53.8175 22.2232C52.7067 22.2232 51.7066 21.9757 50.8171 21.4806C49.9277 20.9856 49.2214 20.2672 48.6982 19.3255C48.179 18.3797 47.9194 17.2286 47.9194 15.8723C47.9194 14.512 48.179 13.359 48.6982 12.4132C49.2214 11.4674 49.9277 10.749 50.8171 10.258C51.7066 9.76698 52.7067 9.52148 53.8175 9.52148C54.9242 9.52148 55.9224 9.76698 56.8118 10.258C57.7053 10.749 58.4136 11.4674 58.9368 12.4132C59.46 13.359 59.7216 14.512 59.7216 15.8723ZM56.6669 15.8723C56.6669 15.0674 56.5522 14.3872 56.3228 13.8319C56.0974 13.2765 55.7714 12.8559 55.3448 12.5701C54.9222 12.2844 54.4131 12.1415 53.8175 12.1415C53.2259 12.1415 52.7167 12.2844 52.2901 12.5701C51.8635 12.8559 51.5355 13.2765 51.3061 13.8319C51.0807 14.3872 50.968 15.0674 50.968 15.8723C50.968 16.6773 51.0807 17.3574 51.3061 17.9128C51.5355 18.4682 51.8635 18.8888 52.2901 19.1745C52.7167 19.4603 53.2259 19.6032 53.8175 19.6032C54.4131 19.6032 54.9222 19.4603 55.3448 19.1745C55.7714 18.8888 56.0974 18.4682 56.3228 17.9128C56.5522 17.3574 56.6669 16.6773 56.6669 15.8723ZM72.6257 15.8723C72.6257 17.2327 72.3641 18.3857 71.8409 19.3315C71.3177 20.2773 70.6093 20.9957 69.7159 21.4867C68.8264 21.9777 67.8283 22.2232 66.7215 22.2232C65.6107 22.2232 64.6106 21.9757 63.7212 21.4806C62.8317 20.9856 62.1254 20.2672 61.6022 19.3255C61.083 18.3797 60.8235 17.2286 60.8235 15.8723C60.8235 14.512 61.083 13.359 61.6022 12.4132C62.1254 11.4674 62.8317 10.749 63.7212 10.258C64.6106 9.76698 65.6107 9.52148 66.7215 9.52148C67.8283 9.52148 68.8264 9.76698 69.7159 10.258C70.6093 10.749 71.3177 11.4674 71.8409 12.4132C72.3641 13.359 72.6257 14.512 72.6257 15.8723ZM69.571 15.8723C69.571 15.0674 69.4563 14.3872 69.2269 13.8319C69.0015 13.2765 68.6755 12.8559 68.2489 12.5701C67.8263 12.2844 67.3172 12.1415 66.7215 12.1415C66.1299 12.1415 65.6208 12.2844 65.1942 12.5701C64.7676 12.8559 64.4396 13.2765 64.2102 13.8319C63.9848 14.3872 63.8721 15.0674 63.8721 15.8723C63.8721 16.6773 63.9848 17.3574 64.2102 17.9128C64.4396 18.4682 64.7676 18.8888 65.1942 19.1745C65.6208 19.4603 66.1299 19.6032 66.7215 19.6032C67.3172 19.6032 67.8263 19.4603 68.2489 19.1745C68.6755 18.8888 69.0015 18.4682 69.2269 17.9128C69.4563 17.3574 69.571 16.6773 69.571 15.8723ZM80.5432 13.3972C80.503 12.9545 80.3239 12.6104 80.0059 12.3649C79.692 12.1154 79.2433 11.9906 78.6597 11.9906C78.2733 11.9906 77.9514 12.0409 77.6938 12.1415C77.4362 12.2421 77.243 12.381 77.1142 12.5581C76.9854 12.7311 76.919 12.9303 76.915 13.1557C76.907 13.3408 76.9432 13.5038 77.0237 13.6447C77.1082 13.7856 77.2289 13.9103 77.3859 14.019C77.5469 14.1236 77.7401 14.2162 77.9654 14.2967C78.1908 14.3772 78.4444 14.4476 78.7261 14.508L79.7886 14.7495C80.4003 14.8823 80.9396 15.0594 81.4065 15.2807C81.8774 15.5021 82.2718 15.7657 82.5897 16.0716C82.9117 16.3774 83.1552 16.7296 83.3202 17.128C83.4852 17.5265 83.5697 17.9732 83.5738 18.4682C83.5697 19.249 83.3725 19.9191 82.9821 20.4785C82.5917 21.0379 82.0303 21.4666 81.2978 21.7644C80.5694 22.0622 79.69 22.2111 78.6597 22.2111C77.6254 22.2111 76.7238 22.0562 75.9551 21.7463C75.1864 21.4364 74.5888 20.9655 74.1622 20.3336C73.7356 19.7018 73.5162 18.9029 73.5042 17.937H76.3657C76.3898 18.3354 76.4965 18.6674 76.6856 18.9331C76.8748 19.1987 77.1344 19.3999 77.4644 19.5368C77.7984 19.6736 78.1848 19.742 78.6235 19.742C79.0259 19.742 79.368 19.6877 79.6497 19.579C79.9355 19.4703 80.1548 19.3194 80.3078 19.1262C80.4607 18.9331 80.5392 18.7117 80.5432 18.4622C80.5392 18.2288 80.4667 18.0295 80.3259 17.8645C80.185 17.6955 79.9677 17.5506 79.6739 17.4299C79.3841 17.3051 79.0139 17.1904 78.5631 17.0858L77.2712 16.7839C76.2006 16.5384 75.3575 16.142 74.7417 15.5946C74.126 15.0433 73.8201 14.2987 73.8241 13.361C73.8201 12.5963 74.0253 11.9262 74.4399 11.3507C74.8544 10.7752 75.4279 10.3264 76.1604 10.0044C76.8929 9.68247 77.728 9.52148 78.6657 9.52148C79.6236 9.52148 80.4547 9.68448 81.159 10.0105C81.8673 10.3324 82.4167 10.7852 82.8071 11.3688C83.1975 11.9524 83.3967 12.6285 83.4047 13.3972H80.5432ZM84.1685 12.1174V9.69052H94.6184V12.1174H90.8695V22.0542H87.9235V12.1174H84.1685ZM95.5679 22.0542V9.69052H104.189V12.1174H98.5562V14.6529H103.748V17.0858H98.5562V19.6273H104.189V22.0542H95.5679ZM110.12 22.0542H105.55V9.69052H110.114C111.374 9.69052 112.458 9.93803 113.368 10.4331C114.281 10.9241 114.986 11.6324 115.481 12.5581C115.976 13.4797 116.223 14.5824 116.223 15.8663C116.223 17.1542 115.976 18.2609 115.481 19.1866C114.99 20.1123 114.288 20.8226 113.374 21.3176C112.46 21.8087 111.376 22.0542 110.12 22.0542ZM108.538 19.5066H110.005C110.698 19.5066 111.283 19.3899 111.762 19.1564C112.245 18.919 112.609 18.5346 112.855 18.0034C113.104 17.4681 113.229 16.7557 113.229 15.8663C113.229 14.9769 113.104 14.2685 112.855 13.7413C112.605 13.21 112.237 12.8277 111.75 12.5943C111.267 12.3568 110.671 12.2381 109.963 12.2381H108.538V19.5066Z" fill="black"/>
<path d="M21.1384 13.0554C20.303 11.6269 19.8345 9.97322 19.8345 8.21405V1.55124C18.7721 1.24926 17.6613 1.0719 16.5119 1.00959V8.21405C16.5119 10.5772 17.1542 12.7917 18.265 14.7091C19.3757 16.6264 20.9936 18.2802 23.0605 19.4689L27.8802 22.2251C28.3825 21.2425 28.7688 20.1736 29.0103 19.0711L24.7122 16.6025C23.1813 15.7157 21.9739 14.4838 21.1384 13.0554Z" fill="black"/>
<path d="M30.9082 14.4359L27.2138 12.3124C26.4652 11.881 25.8712 11.2818 25.4607 10.5724C25.0502 9.87735 24.8184 9.06248 24.8184 8.19967V6.08099C23.8284 5.2038 22.7176 4.46083 21.4958 3.9V8.21405C21.4958 9.67603 21.8967 11.0565 22.5824 12.2309C23.273 13.4197 24.2727 14.4359 25.5428 15.1693L30.8551 18.2131C30.9517 17.5276 31 16.8326 31 16.1279C31 15.5479 30.9662 14.9871 30.9082 14.4359ZM8.93464 12.2309C8.24404 13.4197 7.24436 14.4359 5.96458 15.1693L2.22183 17.3167C2.18319 16.9188 2.15905 16.5258 2.15905 16.1279C2.15905 15.1788 2.25563 14.2681 2.43915 13.3813L4.29845 12.3124C5.04701 11.881 5.64102 11.2818 6.05151 10.5724C6.45235 9.87735 6.69382 9.06248 6.69382 8.19967V3.96231C7.70315 3.20496 8.82357 2.58182 10.0068 2.10248V8.20446C10.0212 9.67603 9.62041 11.0421 8.93464 12.2309Z" fill="black"/>
<path d="M13.2569 14.6995C14.3677 12.7821 15.01 10.5628 15.01 8.20446V2.6681C13.8606 2.73041 12.7402 2.93173 11.6874 3.26727V8.21884C11.6874 9.97802 11.2044 11.6365 10.3835 13.0602C9.54797 14.4886 8.34063 15.7205 6.80972 16.6073L1 19.9243C1.28976 21.0172 1.70026 22.0574 2.20734 23.04L8.46136 19.4545C10.5283 18.2802 12.1462 16.6169 13.2569 14.6995ZM15.7537 23.9364C17.1301 23.9364 18.5306 24.2815 19.8007 25.0149L23.558 27.1575C22.4858 27.9149 21.2882 28.514 20.0084 28.9311L18.1442 27.8669C17.3957 27.4355 16.5747 27.2294 15.7537 27.2294C14.9424 27.2294 14.1214 27.4307 13.3632 27.8669L9.65422 29.9904C8.48068 29.4727 7.38442 28.8256 6.37991 28.0587L11.6922 25.0149C12.9913 24.2815 14.3773 23.9364 15.7537 23.9364Z" fill="black"/>
<path d="M22.2975 20.7248C20.2305 19.536 17.9849 18.9848 15.7537 18.9848C13.5322 18.9848 11.2721 19.536 9.20992 20.7248L4.38055 23.4954C4.99871 24.4301 5.73278 25.2929 6.56826 26.0502L10.8809 23.5817C12.4166 22.6949 14.1069 22.2874 15.7585 22.2874C17.4247 22.2874 19.1053 22.7093 20.6362 23.5817L26.4459 26.9131C27.2428 26.1317 27.9575 25.2593 28.5708 24.3246L22.2975 20.7248Z" fill="black"/>
</svg>
