<svg width="180" height="134" viewBox="0 0 180 134" fill="none" xmlns="http://www.w3.org/2000/svg">
<path d="M75.5 105H79.8438V115.25C79.8438 116.469 79.5521 117.523 78.9688 118.414C78.3906 119.299 77.5833 119.984 76.5469 120.469C75.5104 120.948 74.3073 121.188 72.9375 121.188C71.5573 121.188 70.349 120.948 69.3125 120.469C68.276 119.984 67.4688 119.299 66.8906 118.414C66.3177 117.523 66.0312 116.469 66.0312 115.25V105H70.375V114.875C70.375 115.37 70.4844 115.812 70.7031 116.203C70.9219 116.589 71.224 116.891 71.6094 117.109C72 117.328 72.4427 117.437 72.9375 117.437C73.4375 117.437 73.8802 117.328 74.2656 117.109C74.651 116.891 74.9531 116.589 75.1719 116.203C75.3906 115.812 75.5 115.37 75.5 114.875V105ZM90.5332 110C90.4915 109.479 90.2962 109.073 89.9473 108.781C89.6035 108.49 89.0801 108.344 88.377 108.344C87.929 108.344 87.5618 108.398 87.2754 108.508C86.9941 108.612 86.7858 108.755 86.6504 108.937C86.515 109.12 86.4447 109.328 86.4395 109.562C86.429 109.755 86.4629 109.93 86.541 110.086C86.6243 110.237 86.7546 110.375 86.9316 110.5C87.1087 110.62 87.3353 110.729 87.6113 110.828C87.8874 110.927 88.2155 111.016 88.5957 111.094L89.9082 111.375C90.7936 111.562 91.5514 111.81 92.1816 112.117C92.8118 112.424 93.3275 112.786 93.7285 113.203C94.1296 113.615 94.4238 114.078 94.6113 114.594C94.804 115.109 94.903 115.672 94.9082 116.281C94.903 117.333 94.64 118.224 94.1191 118.953C93.5983 119.682 92.8535 120.237 91.8848 120.617C90.9212 120.997 89.7624 121.188 88.4082 121.188C87.0176 121.188 85.804 120.982 84.7676 120.57C83.7363 120.159 82.9342 119.526 82.3613 118.672C81.7936 117.812 81.5072 116.714 81.502 115.375H85.627C85.653 115.865 85.7754 116.276 85.9941 116.609C86.2129 116.943 86.5202 117.195 86.916 117.367C87.3171 117.539 87.7936 117.625 88.3457 117.625C88.8092 117.625 89.1973 117.568 89.5098 117.453C89.8223 117.339 90.0592 117.18 90.2207 116.977C90.3822 116.773 90.4655 116.542 90.4707 116.281C90.4655 116.036 90.3848 115.823 90.2285 115.641C90.0775 115.453 89.8275 115.286 89.4785 115.141C89.1296 114.99 88.6582 114.849 88.0645 114.719L86.4707 114.375C85.054 114.068 83.9368 113.555 83.1191 112.836C82.3066 112.112 81.903 111.125 81.9082 109.875C81.903 108.859 82.1738 107.971 82.7207 107.211C83.2728 106.445 84.0358 105.849 85.0098 105.422C85.9889 104.995 87.1113 104.781 88.377 104.781C89.6686 104.781 90.7858 104.997 91.7285 105.43C92.6712 105.862 93.3978 106.471 93.9082 107.258C94.4238 108.039 94.6842 108.953 94.6895 110H90.5332ZM100.094 121H95.4063L100.688 105H106.625L111.906 121H107.219L103.719 109.406H103.594L100.094 121ZM99.2188 114.688H108.031V117.937H99.2188V114.688Z" fill="black"/>
<path d="M14.5 97V73.7273H24.5909C26.3636 73.7273 27.8523 73.9659 29.0568 74.4432C30.2689 74.9205 31.1818 75.5947 31.7955 76.4659C32.4167 77.3371 32.7273 78.3636 32.7273 79.5455C32.7273 80.4015 32.5379 81.1818 32.1591 81.8864C31.7879 82.5909 31.2652 83.1818 30.5909 83.6591C29.9167 84.1288 29.1288 84.4545 28.2273 84.6364V84.8636C29.2273 84.9015 30.1364 85.1553 30.9545 85.625C31.7727 86.0871 32.4242 86.7273 32.9091 87.5455C33.3939 88.3561 33.6364 89.3106 33.6364 90.4091C33.6364 91.6818 33.303 92.8144 32.6364 93.8068C31.9773 94.7992 31.0379 95.5795 29.8182 96.1477C28.5985 96.7159 27.1439 97 25.4545 97H14.5ZM20.8182 91.9545H23.7727C24.8333 91.9545 25.6288 91.7576 26.1591 91.3636C26.6894 90.9621 26.9545 90.3712 26.9545 89.5909C26.9545 89.0455 26.8295 88.5833 26.5795 88.2045C26.3295 87.8258 25.9735 87.5379 25.5114 87.3409C25.0568 87.1439 24.5076 87.0455 23.8636 87.0455H20.8182V91.9545ZM20.8182 83.1364H23.4091C23.9621 83.1364 24.4508 83.0492 24.875 82.875C25.2992 82.7008 25.6288 82.4508 25.8636 82.125C26.1061 81.7917 26.2273 81.3864 26.2273 80.9091C26.2273 80.1894 25.9697 79.6402 25.4545 79.2614C24.9394 78.875 24.2879 78.6818 23.5 78.6818H20.8182V83.1364ZM57.1405 85.3636C57.1405 87.9545 56.6367 90.1402 55.6291 91.9205C54.6215 93.6932 53.2617 95.0379 51.5495 95.9545C49.8374 96.8636 47.9283 97.3182 45.8223 97.3182C43.7011 97.3182 41.7844 96.8598 40.0723 95.9432C38.3677 95.0189 37.0117 93.6705 36.0041 91.8977C35.0041 90.1174 34.5041 87.9394 34.5041 85.3636C34.5041 82.7727 35.0041 80.5909 36.0041 78.8182C37.0117 77.0379 38.3677 75.6932 40.0723 74.7841C41.7844 73.8674 43.7011 73.4091 45.8223 73.4091C47.9283 73.4091 49.8374 73.8674 51.5495 74.7841C53.2617 75.6932 54.6215 77.0379 55.6291 78.8182C56.6367 80.5909 57.1405 82.7727 57.1405 85.3636ZM50.6405 85.3636C50.6405 83.9697 50.4548 82.7955 50.0836 81.8409C49.72 80.8788 49.1783 80.1515 48.4586 79.6591C47.7465 79.1591 46.8677 78.9091 45.8223 78.9091C44.7768 78.9091 43.8942 79.1591 43.1745 79.6591C42.4624 80.1515 41.9208 80.8788 41.5495 81.8409C41.1859 82.7955 41.0041 83.9697 41.0041 85.3636C41.0041 86.7576 41.1859 87.9356 41.5495 88.8977C41.9208 89.8523 42.4624 90.5795 43.1745 91.0795C43.8942 91.572 44.7768 91.8182 45.8223 91.8182C46.8677 91.8182 47.7465 91.572 48.4586 91.0795C49.1783 90.5795 49.72 89.8523 50.0836 88.8977C50.4548 87.9356 50.6405 86.7576 50.6405 85.3636ZM81.3292 85.3636C81.3292 87.9545 80.8254 90.1402 79.8178 91.9205C78.8103 93.6932 77.4504 95.0379 75.7383 95.9545C74.0262 96.8636 72.1171 97.3182 70.011 97.3182C67.8898 97.3182 65.9731 96.8598 64.261 95.9432C62.5565 95.0189 61.2004 93.6705 60.1928 91.8977C59.1928 90.1174 58.6928 87.9394 58.6928 85.3636C58.6928 82.7727 59.1928 80.5909 60.1928 78.8182C61.2004 77.0379 62.5565 75.6932 64.261 74.7841C65.9731 73.8674 67.8898 73.4091 70.011 73.4091C72.1171 73.4091 74.0262 73.8674 75.7383 74.7841C77.4504 75.6932 78.8103 77.0379 79.8178 78.8182C80.8254 80.5909 81.3292 82.7727 81.3292 85.3636ZM74.8292 85.3636C74.8292 83.9697 74.6436 82.7955 74.2724 81.8409C73.9087 80.8788 73.3671 80.1515 72.6474 79.6591C71.9353 79.1591 71.0565 78.9091 70.011 78.9091C68.9656 78.9091 68.083 79.1591 67.3633 79.6591C66.6512 80.1515 66.1095 80.8788 65.7383 81.8409C65.3747 82.7955 65.1928 83.9697 65.1928 85.3636C65.1928 86.7576 65.3747 87.9356 65.7383 88.8977C66.1095 89.8523 66.6512 90.5795 67.3633 91.0795C68.083 91.572 68.9656 91.8182 70.011 91.8182C71.0565 91.8182 71.9353 91.572 72.6474 91.0795C73.3671 90.5795 73.9087 89.8523 74.2724 88.8977C74.6436 87.9356 74.8292 86.7576 74.8292 85.3636ZM95.518 81C95.4574 80.2424 95.1733 79.6515 94.6657 79.2273C94.1657 78.803 93.4043 78.5909 92.3816 78.5909C91.7301 78.5909 91.196 78.6705 90.7793 78.8295C90.3702 78.9811 90.0672 79.1894 89.8702 79.4545C89.6733 79.7197 89.571 80.0227 89.5634 80.3636C89.5483 80.6439 89.5975 80.8977 89.7111 81.125C89.8324 81.3447 90.0217 81.5455 90.2793 81.7273C90.5369 81.9015 90.8664 82.0606 91.268 82.2045C91.6695 82.3485 92.1467 82.4773 92.6998 82.5909L94.6089 83C95.8967 83.2727 96.999 83.6326 97.9157 84.0795C98.8324 84.5265 99.5824 85.053 100.166 85.6591C100.749 86.2576 101.177 86.9318 101.45 87.6818C101.73 88.4318 101.874 89.25 101.882 90.1364C101.874 91.6667 101.491 92.9621 100.734 94.0227C99.9763 95.0833 98.893 95.8902 97.4839 96.4432C96.0824 96.9962 94.3967 97.2727 92.427 97.2727C90.4043 97.2727 88.6392 96.9735 87.1316 96.375C85.6316 95.7765 84.4649 94.8561 83.6316 93.6136C82.8058 92.3636 82.3892 90.7652 82.3816 88.8182H88.3816C88.4195 89.5303 88.5975 90.1288 88.9157 90.6136C89.2339 91.0985 89.6808 91.4659 90.2566 91.7159C90.8399 91.9659 91.5331 92.0909 92.3361 92.0909C93.0104 92.0909 93.5748 92.0076 94.0293 91.8409C94.4839 91.6742 94.8286 91.4432 95.0634 91.1477C95.2983 90.8523 95.4195 90.5152 95.427 90.1364C95.4195 89.7803 95.302 89.4697 95.0748 89.2045C94.8551 88.9318 94.4914 88.6894 93.9839 88.4773C93.4763 88.2576 92.7907 88.053 91.927 87.8636L89.6089 87.3636C87.5483 86.9167 85.9233 86.1705 84.7339 85.125C83.552 84.072 82.9649 82.6364 82.9725 80.8182C82.9649 79.3409 83.3589 78.0492 84.1543 76.9432C84.9574 75.8295 86.0672 74.9621 87.4839 74.3409C88.9081 73.7197 90.5407 73.4091 92.3816 73.4091C94.2604 73.4091 95.8854 73.7235 97.2566 74.3523C98.6278 74.9811 99.6846 75.8674 100.427 77.0114C101.177 78.1477 101.556 79.4773 101.563 81H95.518ZM102.369 78.8182V73.7273H122.596V78.8182H115.596V97H109.369V78.8182H102.369ZM123.694 97V73.7273H140.466V78.8182H130.012V82.8182H139.603V87.9091H130.012V91.9091H140.421V97H123.694ZM151.275 97H142.32V73.7273H151.184C153.578 73.7273 155.646 74.1932 157.388 75.125C159.138 76.0492 160.487 77.3826 161.434 79.125C162.388 80.8598 162.865 82.9394 162.865 85.3636C162.865 87.7879 162.392 89.8712 161.445 91.6136C160.498 93.3485 159.157 94.6818 157.422 95.6136C155.687 96.5379 153.638 97 151.275 97ZM148.638 91.6364H151.047C152.199 91.6364 153.18 91.4508 153.99 91.0795C154.809 90.7083 155.43 90.0682 155.854 89.1591C156.286 88.25 156.502 86.9848 156.502 85.3636C156.502 83.7424 156.282 82.4773 155.843 81.5682C155.411 80.6591 154.775 80.0189 153.934 79.6477C153.1 79.2765 152.078 79.0909 150.865 79.0909H148.638V91.6364Z" fill="black"/>
<path d="M97.9066 30.2011C96.4585 27.689 95.6465 24.7807 95.6465 21.687V9.96965C93.8049 9.43858 91.8796 9.12668 89.8873 9.01709V21.687C89.8873 25.8429 91.0006 29.7374 92.9259 33.1093C94.8513 36.4812 97.6555 39.3895 101.238 41.4801L109.592 46.3272C110.463 44.5991 111.133 42.7192 111.551 40.7804L104.101 36.4391C101.448 34.8796 99.3548 32.7131 97.9066 30.2011Z" fill="black"/>
<path d="M114.841 32.6287L108.437 28.8943C107.14 28.1357 106.11 27.0819 105.399 25.8343C104.687 24.612 104.285 23.179 104.285 21.6616V17.9357C102.569 16.393 100.644 15.0864 98.5261 14.1001V21.6869C98.5261 24.258 99.2209 26.6857 100.41 28.751C101.607 30.8416 103.339 32.6287 105.541 33.9185L114.749 39.2714C114.916 38.0659 115 36.8436 115 35.6044C115 34.5844 114.941 33.5981 114.841 32.6287ZM76.7534 28.751C75.5563 30.8416 73.8236 32.6287 71.6053 33.9185L65.1178 37.695C65.0509 36.9953 65.009 36.3041 65.009 35.6044C65.009 33.9353 65.1764 32.3337 65.4945 30.7742L68.7173 28.8943C70.0148 28.1357 71.0444 27.0819 71.756 25.8343C72.4507 24.612 72.8693 23.179 72.8693 21.6616V14.2097C74.6188 12.8778 76.5609 11.7819 78.6117 10.939V21.67C78.6368 24.258 77.942 26.6605 76.7534 28.751Z" fill="black"/>
<path d="M84.2453 33.0923C86.1706 29.7204 87.284 25.8174 87.284 21.67V11.9336C85.2917 12.0432 83.3496 12.3972 81.5248 12.9873V21.6952C81.5248 24.789 80.6877 27.7057 79.2646 30.2093C77.8165 32.7214 75.7238 34.8878 73.0702 36.4473L63 42.2807C63.5023 44.2027 64.2138 46.0319 65.0927 47.76L75.933 41.4546C79.5158 39.3893 82.32 36.4642 84.2453 33.0923ZM88.5731 49.3364C90.9588 49.3364 93.3863 49.9433 95.5879 51.2331L102.1 55.0012C100.242 56.3331 98.1661 57.3868 95.9478 58.1202L92.7167 56.2488C91.4192 55.4901 89.9961 55.1276 88.5731 55.1276C87.1668 55.1276 85.7437 55.4817 84.4295 56.2488L78.0006 59.9832C75.9665 59.0728 74.0663 57.9348 72.3252 56.586L81.5332 51.2331C83.7849 49.9433 86.1874 49.3364 88.5731 49.3364Z" fill="black"/>
<path d="M99.9156 43.6884C96.3329 41.5978 92.4404 40.6284 88.5731 40.6284C84.7225 40.6284 80.8049 41.5978 77.2305 43.6884L68.8596 48.5608C69.9311 50.2046 71.2035 51.722 72.6516 53.0539L80.1268 48.7125C82.7888 47.153 85.7186 46.4365 88.5814 46.4365C91.4694 46.4365 94.3825 47.1783 97.0361 48.7125L107.106 54.5712C108.487 53.1972 109.726 51.663 110.789 50.0192L99.9156 43.6884Z" fill="black"/>
</svg>
